# xmcd
#
# Track frame offsets:
#	150
#	16580
#	37716
#	64215
#	87345
#	104740
#	120426
#	138571
#	151867
#	166428
#	192738
#	205088
#
# Disc length: 2981 seconds
#
# Revision: 0
# Processed by: cddbd v1.4PL0 Copyright (c) Steve Scherf et al.
# Submitted via: EasyCDDAExtractor 4.6.9.1
#
DISCID=9c0ba30c
DTITLE=Gerry Goffin  - Back Room Blood
DYEAR=1996
DGENRE=Blues
TTITLE0=Never Too Late to Rock and Roll
TTITLE1=Woman Can Be Like a Gangster
TTITLE2=Elysian Fields
TTITLE3=Tragedy of the 
TTITLE4=Sacred Heart of Stone
TTITLE5=Rough Theology
TTITLE6=One She Ass
TTITLE7=Death to the Printed World
TTITLE8=Organized Crime
TTITLE9=Relief
TTITLE10=Masquerade
TTITLE11=I've Got to Use My Imagination
EXTD=
EXTT0=
EXTT1=
EXTT2=
EXTT3=
EXTT4=
EXTT5=
EXTT6=
EXTT7=
EXTT8=
EXTT9=
EXTT10=
EXTT11=
PLAYORDER=
